<svg xmlns="http://www.w3.org/2000/svg" viewBox="0 0 1080 1080"><defs><style>.cls-1,.cls-11,.cls-2{fill:#f7dba4;}.cls-2{font-size:28.92px;}.cls-11,.cls-2{font-family:Brice-ExtraLightExpanded, Brice;font-weight:200;}.cls-3{letter-spacing:-0.08em;}.cls-4{letter-spacing:-0.04em;}.cls-5{letter-spacing:0em;}.cls-6{letter-spacing:-0.02em;}.cls-7{letter-spacing:-0.02em;}.cls-8{letter-spacing:-0.03em;}.cls-9{letter-spacing:0em;}.cls-10{letter-spacing:0em;}.cls-11{font-size:31.01px;}.cls-12{letter-spacing:-0.01em;}.cls-13{letter-spacing:-0.04em;}.cls-14{letter-spacing:-0.01em;}</style></defs><g id="Layer_2" data-name="Layer 2"><rect width="1080" height="1080"/></g><g id="Layer_1" data-name="Layer 1"><path class="cls-1" d="M453.09,538.21l2,.6a44.08,44.08,0,0,1-1.1,5.42c-6.27,18.75-12.69,37.45-18.88,56.23-1.3,3.94-3.36,5.4-7.59,5.34-12.15-.18-12.05,0-16-11.69q-8.72-25.47-17.78-50.83c-1.63-4.54,0-5.7,4.18-5.6,5,.12,10,.17,15,0,3.86-.13,6,1.22,7.31,5.11,4.22,12.6,8.83,25.07,13.33,37.59.52,1.46,1.27,2.85,1.92,4.27l1.6,0Z"/><path class="cls-1" d="M698.59,483.93q-13.74-34.28-27.5-68.53l-1.79-.1c-1.81,4.11-3.73,8.18-5.41,12.35-7.11,17.76-14.06,35.59-21.37,53.27a7.22,7.22,0,0,1-5.18,3.54c-5.79.48-11.65.22-17.48.22-3.39,0-4.47-1.33-3.11-4.71,5.52-13.75,10.89-27.55,16.34-41.32,3.07-7.74,6.28-15.42,9.24-23.2,1.3-3.43,3.4-5,7.11-4.94,5.83.15,11.67.18,17.5,0,3.37-.11,5.29,1.36,6.46,4.33q10.85,27.39,21.73,54.77l5.4,13.61Z"/><path class="cls-1" d="M338.29,483c.37-4.9.55-9.82,1.15-14.69,2.14-17.5,4.54-35,6.56-52.49.44-3.84,2-5.26,5.64-5.2,6,.11,12,.12,18,0,3-.08,4.4,1.25,5.37,4,6.51,18.68,13.17,37.31,19.79,56,1.06,3,2,6,3.22,8.91,1.41,3.57-.11,5.1-3.54,5.15-5.83.09-11.66,0-17.49,0-3.57,0-4.82-2.29-5.81-5.15q-7.53-21.66-15.14-43.31c-2-5.73-4.14-11.42-6.21-17.13l-2.14.07q-3.84,32-7.7,64Z"/><path class="cls-1" d="M491.08,436.23c-7.06,16.59-10.85,32.9-17.29,48.12l-2.07-.78c1.22-4,2.3-8.13,3.66-12.12,6.41-18.71,13-37.36,19.28-56.11,1.17-3.5,3.07-4.88,6.52-4.69,1.16.07,2.33,0,3.5,0,11.46.08,9.92-.75,11.74,10.66,3,19,5.05,38.22,7.8,57.3.63,4.44-.41,6.27-5,6.13-5-.15-10-.12-15,0-4.09.11-5.85-1.59-6.38-5.78-1.59-12.69-3.57-25.34-5.44-38A48.68,48.68,0,0,0,491.08,436.23Z"/><path class="cls-1" d="M528.2,605.7h-1c-13.94-.27-11.42,2.37-13.81-12.6-2.59-16.26-4.48-32.64-6.78-49-.73-5.18,0-6.31,5.23-6.42,5-.1,10,.13,15-.05,4.16-.16,6.13,1.75,6.63,5.72q2.65,20.8,5.41,41.6c.72,5.44,1.46,10.88,2.4,16.28.54,3.07-.48,4.44-3.57,4.41s-6.33,0-9.5,0Z"/><path class="cls-1" d="M566.68,605.68c3.5-9.14,6.55-17.34,9.79-25.47,5-12.64,10.3-25.21,15.3-37.88,1.27-3.24,3.17-4.75,6.69-4.65,5.31.17,10.64.16,16,0,4.46-.11,5.09,1.76,3.54,5.55-5.2,12.75-10.26,25.56-15.39,38.34-2.78,6.93-5.46,13.91-8.52,20.71-.65,1.46-2.71,3.15-4.18,3.22C582.58,605.86,575.28,605.68,566.68,605.68Z"/><path class="cls-1" d="M333,539.23c-.46,9.42-1.12,18.84-1.31,28.27-.22,11-.13,21.94.05,32.9.07,3.83-1.23,5.54-5.18,5.33-3.61-.19-7.24,0-11.12,0l16.83-66.57Z"/><path class="cls-1" d="M749.7,605.56c-4.65,0-8.19.57-11.36-.26-1.45-.38-2.7-3.44-3.12-5.47-2-9.58-3.38-19.3-5.59-28.82s-5.14-18.87-7.74-28.3c-.34-1.23-.58-2.47-.87-3.71l1.71-.61C731.57,560.4,740.41,582.41,749.7,605.56Z"/><path class="cls-1" d="M739.14,506.85h51.67c0,1.25,0,2.49,0,3.74H739.08Z"/><path class="cls-1" d="M277,507.67h51v3.7H277Z"/><text class="cls-2" transform="translate(363.2 653.68) scale(0.79 1)">HE<tspan class="cls-3" x="57.22" y="0">A</tspan><tspan x="84.23" y="0">V</tspan><tspan class="cls-4" x="113.49" y="0">Y</tspan><tspan class="cls-5" x="138.26" y="0"> </tspan><tspan class="cls-6" x="148.37" y="0">E</tspan><tspan x="174.43" y="0">QUIPMEN</tspan><tspan class="cls-7" x="364.76" y="0">T</tspan><tspan x="389.71" y="0">S</tspan><tspan x="0" y="34.71" xml:space="preserve">           </tspan><tspan class="cls-8" x="111.23" y="34.71"> </tspan><tspan class="cls-9" x="120.48" y="34.71">T</tspan><tspan class="cls-10" x="145.87" y="34.71">R</tspan><tspan class="cls-9" x="176.35" y="34.71">ADING</tspan></text><text class="cls-11" transform="translate(441.2 524.72) scale(0.84 1)">MA<tspan class="cls-12" x="69.74" y="0">X</tspan><tspan class="cls-13" x="96.42" y="0"> </tspan><tspan x="105.9" y="0">APE</tspan><tspan class="cls-14" x="195.88" y="0">X</tspan></text></g></svg>