<svg id="Layer_1" data-name="Layer 1" xmlns="http://www.w3.org/2000/svg" viewBox="0 0 960.04 530.79"><defs><style>.cls-1,.cls-11,.cls-2{fill:#f7dba4;}.cls-2{font-size:54.04px;}.cls-11,.cls-2{font-family:Brice-ExtraLightExpanded, Brice;font-weight:200;}.cls-3{letter-spacing:-0.08em;}.cls-4{letter-spacing:-0.04em;}.cls-5{letter-spacing:0em;}.cls-6{letter-spacing:-0.02em;}.cls-7{letter-spacing:-0.02em;}.cls-8{letter-spacing:-0.03em;}.cls-9{letter-spacing:0em;}.cls-10{letter-spacing:0em;}.cls-11{font-size:57.94px;}.cls-12{letter-spacing:-0.01em;}.cls-13{letter-spacing:-0.04em;}</style></defs><path class="cls-1" d="M356,273l3.72,1.12c-.67,3.38-1,6.9-2.06,10.13-11.71,35-23.7,70-35.27,105.05-2.43,7.36-6.28,10.09-14.18,10-22.7-.34-22.51-.06-30-21.84Q262,329.86,245,282.48c-3-8.48,0-10.65,7.81-10.46,9.33.22,18.67.32,28,0,7.21-.24,11.21,2.28,13.66,9.55,7.88,23.54,16.5,46.84,24.9,70.23,1,2.73,2.38,5.32,3.59,8l3-.06Q341,316.35,356,273Z" transform="translate(-26.96 -34.4)"/><path class="cls-1" d="M814.7,171.59l-51.39-128L760,43.37c-3.38,7.69-7,15.29-10.1,23.09-13.3,33.17-26.29,66.48-39.93,99.51-1.28,3.11-6.21,6.34-9.68,6.62-10.83.89-21.77.4-32.67.4-6.33,0-8.33-2.48-5.8-8.8,10.32-25.67,20.35-51.46,30.53-77.19,5.73-14.46,11.73-28.81,17.25-43.34,2.43-6.41,6.36-9.41,13.29-9.23,10.89.28,21.81.33,32.69,0,6.3-.2,9.88,2.55,12.08,8.09q20.25,51.18,40.6,102.33,5,12.72,10.09,25.43Z" transform="translate(-26.96 -34.4)"/><path class="cls-1" d="M141.54,169.86c.69-9.15,1-18.34,2.15-27.45,4-32.69,8.48-65.33,12.25-98.06.83-7.17,3.69-9.82,10.54-9.71,11.21.19,22.42.21,33.62-.07,5.63-.14,8.21,2.35,10,7.52,12.17,34.9,24.62,69.71,37,104.54,2,5.56,3.83,11.17,6,16.65,2.64,6.68-.19,9.53-6.61,9.62-10.89.17-21.78,0-32.67.08-6.67.07-9-4.28-10.87-9.61q-14.06-40.49-28.28-80.92c-3.77-10.71-7.73-21.35-11.6-32l-4,.13q-7.2,59.77-14.39,119.53Z" transform="translate(-26.96 -34.4)"/><path class="cls-1" d="M427,82.48c-13.19,31-20.28,61.46-32.3,89.9l-3.87-1.45c2.27-7.56,4.29-15.19,6.84-22.65,12-34.95,24.28-69.8,36-104.83,2.19-6.53,5.72-9.12,12.18-8.76,2.17.12,4.35,0,6.53,0,21.42.16,18.54-1.39,21.94,19.91C480,90.14,483.78,126,488.91,161.65c1.19,8.28-.77,11.7-9.25,11.45-9.32-.28-18.67-.24-28,0-7.65.2-10.94-3-11.92-10.79-3-23.72-6.69-47.35-10.18-71C429.27,89.32,428.46,87.41,427,82.48Z" transform="translate(-26.96 -34.4)"/><path class="cls-1" d="M496.35,399.1h-1.87c-26-.5-21.34,4.42-25.8-23.54-4.84-30.38-8.37-61-12.67-91.45-1.37-9.67,0-11.79,9.77-12,9.34-.19,18.69.24,28-.11,7.76-.28,11.44,3.28,12.38,10.69q4.95,38.87,10.1,77.72c1.34,10.17,2.74,20.33,4.5,30.43,1,5.72-.91,8.29-6.68,8.23-5.92-.07-11.83,0-17.75,0Z" transform="translate(-26.96 -34.4)"/><path class="cls-1" d="M568.25,399.06c6.54-17.06,12.23-32.39,18.28-47.57,9.43-23.64,19.24-47.11,28.58-70.78,2.39-6,5.92-8.88,12.5-8.68,9.93.3,19.89.28,29.83,0,8.33-.2,9.5,3.29,6.61,10.37-9.72,23.82-19.17,47.75-28.76,71.63-5.2,12.95-10.2,26-15.91,38.71-1.22,2.71-5.06,5.88-7.82,6C598,399.4,584.31,399.06,568.25,399.06Z" transform="translate(-26.96 -34.4)"/><path class="cls-1" d="M131.57,274.91c-.84,17.61-2.08,35.21-2.43,52.82-.41,20.48-.25,41,.09,61.47.12,7.16-2.3,10.36-9.67,10-6.75-.36-13.53-.08-20.79-.08l31.45-124.37Z" transform="translate(-26.96 -34.4)"/><path class="cls-1" d="M910.19,398.83c-8.7,0-15.32,1.08-21.24-.48-2.71-.71-5-6.42-5.83-10.22-3.75-17.89-6.3-36.05-10.43-53.84s-9.61-35.26-14.47-52.88c-.63-2.28-1.08-4.61-1.62-6.92l3.19-1.14Z" transform="translate(-26.96 -34.4)"/><path class="cls-1" d="M890.45,214.43H987c0,2.33,0,4.65,0,7H890.33Z" transform="translate(-26.96 -34.4)"/><path class="cls-1" d="M27,215.94h95.28v6.92H27C27,220.55,27,218.25,27,215.94Z" transform="translate(-26.96 -34.4)"/><text class="cls-2" transform="translate(161.12 454.34) scale(0.79 1)">HE<tspan class="cls-3" x="106.91" y="0">A</tspan><tspan x="157.36" y="0">V</tspan><tspan class="cls-4" x="212.03" y="0">Y</tspan><tspan class="cls-5" x="258.31" y="0"> </tspan><tspan class="cls-6" x="277.2" y="0">E</tspan><tspan x="325.88" y="0">QUIPMEN</tspan><tspan class="cls-7" x="681.48" y="0">T</tspan><tspan x="728.1" y="0">S</tspan><tspan x="0" y="64.84" xml:space="preserve">           </tspan><tspan class="cls-8" x="207.81" y="64.84"> </tspan><tspan class="cls-5" x="225.09" y="64.84">T</tspan><tspan class="cls-9" x="272.53" y="64.84">R</tspan><tspan class="cls-10" x="329.47" y="64.84">ADING</tspan></text><text class="cls-11" transform="translate(306.84 213.4) scale(0.84 1)">MA<tspan class="cls-12" x="130.29" y="0">X</tspan><tspan class="cls-13" x="180.14" y="0"> </tspan><tspan x="197.85" y="0">APE</tspan><tspan class="cls-12" x="365.97" y="0">X</tspan></text></svg>